<svg width="36" height="36" viewBox="0 0 36 36" fill="none" xmlns="http://www.w3.org/2000/svg">
<path d="M13.0259 36C7.66802 35.9692 3.23608 25.0319 3.23608 19.4618C3.23608 10.3631 10.0617 8.37115 12.6922 8.37115C13.8777 8.37115 15.1435 8.83669 16.26 9.24865C17.0407 9.53602 17.8482 9.83266 18.2973 9.83266C18.5661 9.83266 19.1996 9.58031 19.7588 9.3589C20.9515 8.88408 22.4357 8.29395 24.164 8.29395C24.1671 8.29395 24.1712 8.29395 24.1742 8.29395C25.4647 8.29395 29.3776 8.57716 31.7301 12.1099L32.2811 12.938L31.4881 13.5364C30.3551 14.3913 28.2879 15.9507 28.2879 19.0396C28.2879 22.698 30.6291 24.105 31.7538 24.7817C32.2503 25.0804 32.7642 25.3883 32.7642 26.0619C32.7642 26.5017 29.254 35.9455 24.1567 35.9455C22.9095 35.9455 22.0278 35.5706 21.2501 35.2399C20.4633 34.9052 19.7845 34.6168 18.6629 34.6168C18.0943 34.6168 17.3754 34.8856 16.6142 35.171C15.5741 35.5592 14.3968 36 13.0609 36H13.0259Z" fill="#1B1C43"/>
<path d="M24.7035 0C24.8362 4.78659 21.413 8.10731 17.9939 7.89905C17.4305 4.07918 21.4126 0 24.7035 0Z" fill="#1B1C43"/>
</svg>
