<svg width="36" height="36" viewBox="0 0 36 36" fill="none" xmlns="http://www.w3.org/2000/svg">
<g clip-path="url(#clip0_164_1469)">
<path d="M32.2474 14.5641L7.6807 0.521616C7.08372 0.180326 6.4045 0 5.7168 0C5.02014 0 4.3334 0.184806 3.73082 0.534417C2.51478 1.23988 1.7594 2.55144 1.7594 3.9574V32.0426C1.7594 33.4484 2.51478 34.76 3.7305 35.4654C4.33308 35.8154 5.01998 36.0002 5.71664 36.0002C6.40402 36.0002 7.08324 35.8197 7.68054 35.4784L32.2469 21.4357C33.4767 20.7326 34.2406 19.4163 34.2406 17.9999C34.2406 16.5836 33.477 15.2672 32.2474 14.5641ZM21.6018 11.2437L18.2287 15.9421L10.1605 4.70367L21.6018 11.2437ZM5.56192 33.5863C5.34255 33.565 5.12734 33.501 4.93518 33.3895C4.45676 33.1119 4.15947 32.5957 4.15947 32.0426V3.95724C4.15947 3.40411 4.45676 2.88793 4.93534 2.61032C5.12686 2.49912 5.34031 2.43288 5.55968 2.41032L16.7514 17.9999L5.56192 33.5863ZM10.1605 31.2963L18.2287 20.0577L21.6018 24.7561L10.1605 31.2963ZM31.0562 19.3518L23.6966 23.5587L19.7059 17.9999L23.6966 12.4412L31.0562 16.648C31.54 16.9247 31.8407 17.4426 31.8407 17.9999C31.8407 18.5572 31.5402 19.0753 31.0562 19.3518Z" fill="black"/>
</g>
<defs>
<clipPath id="clip0_164_1469">
<rect width="36" height="36" fill="white"/>
</clipPath>
</defs>
</svg>
