<svg width="25" height="20" viewBox="0 0 25 20" fill="none" xmlns="http://www.w3.org/2000/svg">
<path d="M9.51251 20C5.33999 20 2.04219 19.2936 0.464429 18.0624L0.43372 18.0383L0.405873 18.0114C0.031079 17.648 -0.0917542 17.1713 0.069226 16.7038L0.0839125 16.6649C0.279225 16.1916 0.757779 15.873 1.27639 15.87C2.34374 15.8521 3.27758 15.7288 4.12501 15.4895C2.77327 14.8803 1.83429 13.8256 1.27562 12.299C1.08775 11.8229 1.24987 11.295 1.68284 10.9803C1.78965 10.9025 1.91039 10.8437 2.03818 10.8043C1.28707 9.96416 0.73222 9.00809 0.421513 7.99695L0.411786 7.96553L0.40511 7.93337C0.299634 7.42198 0.535573 6.89617 0.967968 6.66977C1.14936 6.56885 1.34639 6.51655 1.54418 6.51212C1.33094 6.06707 1.17587 5.6102 1.08394 5.15056C0.828732 3.87679 1.0393 2.59987 1.70955 1.3553L1.86461 1.05479C1.98878 0.814339 2.22606 0.645415 2.49957 0.602352C2.77308 0.559474 3.05346 0.647078 3.24935 0.836887L3.53183 1.11097C5.76342 3.37796 7.76232 4.4536 11.2182 5.18955C11.3726 3.90414 11.9461 2.70929 12.8713 1.76893C13.9725 0.650035 15.4428 0.022206 17.0116 0.000767074H17.0219C18.1665 0.000767074 19.5864 0.633956 20.445 1.08048C21.1817 0.846867 22.0692 0.485177 22.99 0.102787C23.4209 -0.0931208 23.9521 -0.00348378 24.2908 0.324754C24.6229 0.646524 24.715 1.10025 24.5388 1.54123C24.4718 1.7218 24.3959 1.89904 24.3114 2.0724C24.4375 2.1284 24.5529 2.20436 24.6504 2.2988C24.9451 2.58435 25.0679 3.03124 24.9632 3.43747L24.9519 3.4761C24.5991 4.57799 23.9212 5.47547 23.0247 6.03879C22.875 13.7644 16.8711 20 9.51251 20ZM1.87033 17.2712C3.35711 18.0862 6.19048 18.5793 9.51251 18.5793C12.7064 18.5793 15.7204 17.2506 17.9991 14.838C20.2965 12.4056 21.5616 9.17554 21.5616 5.74271V5.70409C21.5616 5.39322 21.7382 5.10953 22.0224 4.96352C22.599 4.66762 23.0659 4.16362 23.3696 3.51916C23.0564 3.56703 22.7381 3.44523 22.5429 3.19129C22.3162 2.89614 22.3137 2.49748 22.5366 2.19974C22.657 2.03895 22.7661 1.87169 22.8634 1.6987C22.0682 2.02231 21.3131 2.31248 20.6575 2.50525C20.4193 2.57511 20.1538 2.54775 19.9362 2.43002C18.7691 1.79998 17.6821 1.42332 17.0267 1.42147C14.6084 1.45732 12.6421 3.46427 12.6421 5.89759C12.6421 6.14913 12.5269 6.38496 12.3264 6.54483C12.1258 6.70451 11.8648 6.76846 11.61 6.71967C7.62519 5.95895 5.26389 4.81825 2.80837 2.42725C2.45646 3.24434 2.36033 4.06733 2.52303 4.87998C2.68801 5.70316 3.1269 6.52801 3.79237 7.26525C4.04528 7.54507 4.07885 7.94538 3.87591 8.26124C3.67373 8.57599 3.2894 8.7231 2.91995 8.62718C2.63118 8.55214 2.36567 8.45364 2.1139 8.32703C2.62679 9.40656 3.50894 10.405 4.61787 11.1413C4.93926 11.3547 5.07354 11.7527 4.9446 12.109C4.81547 12.4659 4.45479 12.6956 4.06493 12.6675C3.64016 12.637 3.26384 12.5588 2.91747 12.4271C3.53926 13.6541 4.5328 14.3292 6.06345 14.5872C6.42794 14.6488 6.71176 14.9276 6.76974 15.2812C6.82791 15.6348 6.64729 15.9852 6.32056 16.1532C5.01593 16.8233 3.59 17.183 1.87033 17.2712Z" fill="url(#paint0_linear_164_1501)"/>
<defs>
<linearGradient id="paint0_linear_164_1501" x1="25.9822" y1="-8.25" x2="-1.46627" y2="-5.54663" gradientUnits="userSpaceOnUse">
<stop offset="0.0001" stop-color="#EAAFFF"/>
<stop offset="1" stop-color="#6475F0"/>
</linearGradient>
</defs>
</svg>
