<svg width="22" height="22" viewBox="0 0 22 22" fill="none" xmlns="http://www.w3.org/2000/svg">
<path d="M20.0664 3.46387H1.93359C0.86741 3.46387 0 4.33128 0 5.39746V16.6029C0 17.6691 0.86741 18.5365 1.93359 18.5365H20.0664C21.1326 18.5365 22 17.6691 22 16.6029V5.39746C22 4.33128 21.1326 3.46387 20.0664 3.46387ZM19.8141 4.75293L19.556 4.96782L11.7672 11.4536C11.3226 11.8237 10.6773 11.8237 10.2328 11.4536L2.44402 4.96782L2.18595 4.75293H19.8141ZM1.28906 5.68355L7.6352 10.968L1.28906 15.1915V5.68355ZM20.0664 17.2475H1.93359C1.62216 17.2475 1.36168 17.0254 1.302 16.7314L8.66877 11.8286L9.40801 12.4442C9.86923 12.8282 10.4347 13.0202 11 13.0202C11.5654 13.0202 12.1308 12.8282 12.5921 12.4442L13.3313 11.8286L20.698 16.7313C20.6383 17.0254 20.3778 17.2475 20.0664 17.2475ZM20.7109 15.1915L14.3648 10.968L20.7109 5.68355V15.1915Z" fill="#1B1C43"/>
</svg>
