<svg width="22" height="22" viewBox="0 0 22 22" fill="none" xmlns="http://www.w3.org/2000/svg">
<g clip-path="url(#clip0_164_1491)">
<path d="M21.3664 16.4928L18.1867 13.3117C17.7597 12.8869 17.1879 12.6528 16.5768 12.6528C15.9409 12.6528 15.3405 12.9031 14.8866 13.3574L13.6488 14.5948C12.687 14.0603 11.4087 13.325 10.0815 11.9978C8.75583 10.6717 8.02046 9.39705 7.48313 8.43006L8.72206 7.19205C9.64318 6.26902 9.66202 4.78818 8.7642 3.89118L5.58511 0.711998C5.15927 0.284976 4.58745 0.0498047 3.97486 0.0498047C3.35316 0.0498047 2.76505 0.289163 2.31373 0.724831C2.0407 0.944712 0.670532 2.15424 0.159871 4.64866C-0.555108 8.1401 1.08763 11.4994 5.83002 16.2437C11.1277 21.5397 15.6502 21.9513 16.9102 21.9513C17.1725 21.9513 17.3308 21.9351 17.373 21.9302C19.8437 21.6406 20.7283 20.5434 21.3742 19.7422C22.2111 18.7039 22.2082 17.3376 21.3664 16.4928ZM20.3114 18.8854C19.7042 19.6384 19.1309 20.3495 17.2142 20.5742C17.2132 20.5743 17.1083 20.5861 16.9102 20.5861C15.7829 20.5861 11.7219 20.2033 6.79537 15.2783C2.42203 10.9032 0.887046 7.90284 1.49727 4.92242C1.94268 2.74672 3.12518 1.82196 3.17114 1.78683L3.21191 1.75671L3.24768 1.72085C3.44508 1.52363 3.70328 1.41496 3.97476 1.41496C4.22195 1.41496 4.45057 1.50761 4.61912 1.67671L7.79894 4.85662C8.1648 5.22212 8.14533 5.83717 7.75607 6.22724L6.35497 7.62717L6.33194 7.65129C5.9668 8.05346 6.00976 8.59698 6.2109 8.95092C6.79127 9.99827 7.58625 11.4327 9.11596 12.9628C10.6406 14.4875 12.0729 15.2818 13.1173 15.8611C13.2219 15.9198 13.4378 16.0183 13.708 16.0183C14.0271 16.0183 14.32 15.8832 14.5369 15.637L15.8518 14.3225C16.0481 14.1261 16.3055 14.0178 16.5766 14.0178C16.8244 14.0178 17.0542 14.1108 17.2224 14.278L20.4 17.457C20.8036 17.8621 20.637 18.4815 20.3114 18.8854Z" fill="#1B1C43"/>
<path d="M13.3277 3.39492C14.5006 3.52989 15.8816 4.24032 16.8459 5.20476C17.8193 6.17812 18.5314 7.57313 18.66 8.75873C18.698 9.10848 18.9938 9.36768 19.3378 9.36768C19.3624 9.36768 19.3873 9.36631 19.4122 9.36368C19.787 9.32299 20.0579 8.98625 20.0172 8.61147C19.8546 7.1128 19.0093 5.43757 17.8113 4.2395C16.6245 3.05263 14.9664 2.20942 13.4838 2.03878C13.1095 1.99536 12.7708 2.26439 12.7277 2.63881C12.6846 3.01323 12.9531 3.35179 13.3277 3.39492Z" fill="#1B1C43"/>
<path d="M12.6901 6.25345C13.3244 6.32653 14.2023 6.79706 14.7774 7.37215C15.3574 7.95225 15.8289 8.83852 15.8983 9.47969C15.9363 9.82953 16.2321 10.0887 16.5761 10.0887C16.6007 10.0887 16.6255 10.0874 16.6504 10.0847C17.0252 10.044 17.2962 9.7073 17.2555 9.33252C17.1368 8.23784 16.4101 7.07427 15.7426 6.4068C15.0811 5.74525 13.9289 5.02198 12.8462 4.89721C12.4713 4.85361 12.1331 5.12273 12.09 5.49715C12.0469 5.87166 12.3156 6.21031 12.6901 6.25345Z" fill="#1B1C43"/>
</g>
<defs>
<clipPath id="clip0_164_1491">
<rect width="22" height="22" fill="white"/>
</clipPath>
</defs>
</svg>
